<?xml version="1.0" standalone="no"?>
<!DOCTYPE svg PUBLIC "-//W3C//DTD SVG 20010904//EN"
 "http://www.w3.org/TR/2001/REC-SVG-20010904/DTD/svg10.dtd">
<svg version="1.0" xmlns="http://www.w3.org/2000/svg"
 width="1352.000000pt" height="1352.000000pt" viewBox="0 0 1352.000000 1352.000000"
 preserveAspectRatio="xMidYMid meet">
<metadata>
Created by potrace 1.14, written by Peter Selinger 2001-2017
</metadata>
<g transform="translate(0.000000,1352.000000) scale(0.100000,-0.100000)"
fill="#000000" stroke="none">
<path d="M3240 7925 c0 -3723 3 -5595 10 -5595 6 0 10 5 10 10 0 6 8 18 18 28
9 11 24 28 32 38 29 38 135 169 140 174 3 3 25 31 49 63 24 31 47 57 52 57 5
0 9 6 9 14 0 8 3 16 8 18 4 1 23 23 42 48 41 53 61 78 75 94 6 6 46 56 90 111
44 55 84 105 90 111 5 6 21 26 35 44 14 18 30 38 35 44 6 6 31 38 57 71 26 33
54 67 61 75 7 8 51 62 97 120 46 58 89 110 94 116 6 7 20 24 30 39 11 14 27
34 35 45 9 10 30 35 46 56 17 21 79 99 139 173 61 75 115 142 120 149 6 7 19
22 29 33 9 10 17 24 17 29 0 6 4 10 8 10 5 0 15 11 22 25 7 13 17 22 22 19 4
-3 8 -1 8 5 0 8 138 187 182 236 7 8 18 20 23 27 6 7 35 45 65 83 30 39 57 72
60 75 3 3 69 84 145 180 77 96 142 177 145 180 3 3 19 23 36 45 16 22 34 45
40 50 5 6 37 44 70 85 32 41 66 83 74 93 8 11 20 24 25 31 6 6 24 29 40 51 17
22 35 45 41 50 5 6 28 33 49 60 21 28 45 57 52 65 11 13 124 154 228 286 17
20 35 42 40 48 6 6 23 27 38 47 l28 37 -46 68 c-25 38 -50 76 -55 84 -91 137
-152 227 -160 237 -5 7 -15 24 -22 38 -6 14 -14 25 -18 25 -4 0 -12 11 -18 25
-7 14 -30 50 -52 79 -22 29 -40 56 -40 59 0 4 -27 45 -60 91 -33 47 -60 88
-60 91 0 4 -13 24 -30 45 -16 21 -30 43 -30 49 0 6 -4 11 -9 11 -5 0 -11 9
-14 19 -5 19 8 20 681 20 l686 1 21 22 c11 13 39 48 62 78 23 30 51 65 62 77
12 12 21 26 21 30 0 5 9 15 20 23 11 8 20 18 20 21 0 7 27 42 63 80 9 10 17
23 17 28 0 5 3 11 8 13 4 2 25 26 47 53 21 28 42 52 45 55 3 3 17 21 30 40 14
19 32 42 40 51 8 8 27 31 41 50 113 145 233 295 240 297 5 2 9 10 9 17 0 7 4
15 8 17 4 2 68 80 142 173 74 94 139 175 145 182 5 6 21 26 35 44 14 18 39 50
55 70 17 20 40 50 52 66 12 15 31 39 42 53 23 27 21 25 71 90 19 25 39 50 45
56 5 6 24 28 40 49 17 21 50 64 75 95 25 32 59 74 75 96 17 21 44 54 60 75 17
20 40 50 52 65 13 16 71 90 130 165 60 75 122 153 138 174 17 21 53 66 80 100
28 34 59 74 70 90 11 15 28 35 38 44 9 8 17 21 17 28 0 7 3 13 8 13 4 0 32 32
62 71 30 39 60 76 65 83 6 6 35 43 65 81 30 39 57 72 60 75 4 3 26 32 51 65
24 32 51 67 59 76 8 9 60 73 115 144 55 70 115 144 132 164 18 20 33 39 33 44
0 4 8 15 18 25 9 10 31 35 47 56 17 21 45 57 63 80 47 58 49 61 131 166 41 52
77 97 80 100 4 3 20 23 36 45 30 41 52 68 70 89 9 9 57 71 87 111 5 6 23 28
42 49 25 29 31 43 22 51 -6 6 -74 53 -151 105 -77 51 -161 109 -187 127 -26
18 -50 33 -54 33 -3 0 -11 6 -19 13 -17 16 -61 48 -85 61 -42 24 -415 280
-418 288 -2 4 -9 8 -16 8 -11 0 -25 9 -73 50 -7 5 -17 10 -23 10 -5 0 -10 5
-10 10 0 6 -7 10 -15 10 -8 0 -15 5 -15 10 0 6 -4 10 -10 10 -5 0 -41 23 -80
50 -39 28 -74 50 -79 50 -5 0 -11 3 -13 8 -3 7 -112 82 -387 266 -75 50 -137
94 -139 99 -2 4 -8 7 -13 7 -6 0 -34 18 -64 40 -30 22 -58 40 -64 40 -5 0 -11
4 -13 8 -1 4 -66 50 -143 102 -77 51 -142 96 -145 99 -3 3 -17 12 -32 20 -16
8 -28 18 -28 23 0 4 -6 8 -13 8 -8 0 -27 11 -43 25 -16 14 -37 28 -46 31 -10
3 -18 10 -18 15 0 5 -4 9 -10 9 -5 0 -48 27 -95 60 -47 33 -90 60 -95 60 -4 0
-10 4 -12 8 -1 4 -66 50 -143 102 -77 51 -141 97 -143 102 -2 4 -8 8 -13 8 -6
0 -37 19 -71 43 -82 57 -99 68 -147 96 -22 14 -41 28 -41 32 0 3 -13 12 -30
19 -16 7 -30 16 -30 21 0 5 -6 9 -14 9 -8 0 -16 3 -18 8 -4 10 -156 112 -167
112 -5 0 -12 7 -15 16 -3 8 -10 13 -15 10 -5 -4 -11 -2 -13 2 -1 5 -34 30 -73
55 l-70 47 -1682 0 -1683 0 0 -5595z m4480 3478 c0 -5 -15 -24 -33 -45 -17
-20 -54 -65 -82 -100 -27 -34 -53 -64 -57 -66 -5 -2 -8 -8 -8 -13 0 -5 -8 -17
-17 -27 -31 -32 -63 -72 -63 -78 0 -3 -6 -11 -12 -18 -13 -12 -50 -58 -115
-140 -18 -23 -42 -51 -53 -63 -11 -12 -20 -27 -20 -32 0 -5 -3 -11 -7 -13 -8
-3 -75 -84 -123 -148 -14 -18 -30 -38 -35 -44 -6 -6 -35 -42 -65 -81 -30 -38
-63 -79 -72 -90 -9 -11 -57 -72 -107 -135 -50 -63 -96 -121 -102 -129 -10 -11
-44 -53 -130 -161 -11 -14 -30 -38 -42 -54 -22 -29 -113 -142 -145 -181 -9
-11 -32 -40 -51 -65 -18 -25 -40 -52 -48 -60 -7 -8 -99 -123 -204 -255 -104
-132 -196 -247 -204 -257 -7 -9 -30 -39 -51 -67 -21 -28 -42 -51 -46 -51 -4 0
-8 -5 -8 -10 0 -6 -10 -21 -22 -34 -13 -13 -30 -33 -38 -46 -8 -12 -19 -28
-25 -34 -5 -6 -37 -45 -70 -86 -33 -41 -62 -77 -65 -80 -3 -3 -17 -21 -30 -40
-14 -19 -34 -43 -45 -52 -11 -10 -17 -17 -12 -18 6 0 -29 -40 -36 -40 -1 0 -3
635 -3 1410 l0 1410 1123 0 c618 0 1123 -3 1123 -7z"/>
<path d="M6903 6777 c-3 -5 4 -22 16 -38 11 -15 21 -33 21 -39 0 -5 5 -10 11
-10 5 0 15 -13 20 -30 6 -16 15 -30 20 -30 5 0 14 -10 19 -22 5 -13 48 -78 95
-146 47 -68 85 -127 85 -133 0 -5 5 -9 10 -9 6 0 10 -5 10 -10 0 -6 8 -20 18
-31 11 -10 25 -32 33 -47 8 -15 19 -32 24 -38 6 -6 53 -75 105 -155 52 -79 97
-146 100 -149 3 -3 88 -129 189 -280 102 -151 200 -296 218 -322 18 -26 33
-52 33 -57 0 -5 4 -11 8 -13 5 -1 73 -100 152 -218 79 -118 147 -216 152 -218
4 -2 8 -8 8 -13 0 -11 122 -193 133 -197 4 -2 7 -7 7 -12 0 -7 106 -169 128
-195 4 -5 17 -25 27 -42 11 -18 23 -33 28 -33 4 0 6 -4 3 -9 -4 -5 -3 -11 2
-13 4 -1 94 -131 199 -288 105 -157 242 -360 304 -453 63 -92 121 -178 129
-191 8 -13 30 -45 48 -70 17 -26 32 -51 32 -57 0 -5 5 -9 10 -9 6 0 10 -6 10
-14 0 -8 4 -16 8 -18 11 -4 92 -126 92 -138 0 -5 4 -10 8 -12 11 -4 202 -288
202 -299 0 -5 3 -9 8 -9 4 0 16 -16 26 -35 11 -19 23 -35 28 -35 4 0 8 -5 8
-12 0 -6 11 -26 25 -44 14 -18 25 -37 25 -43 0 -6 4 -11 10 -11 5 0 16 -15 25
-32 9 -18 26 -46 39 -61 l22 -28 -1 68 c-1 37 3 74 8 80 5 7 6 13 1 13 -7 0
-8 64 -4 245 0 6 0 219 0 475 0 256 -1 472 0 480 0 8 0 152 0 320 -1 168 -1
312 0 320 0 8 0 152 0 320 -1 168 -1 312 0 320 0 8 0 152 0 320 -1 168 -1 312
0 320 0 8 0 152 0 320 -1 168 -1 314 0 325 1 148 -5 445 -9 446 -34 6 -2924 2
-2928 -4z"/>
<path d="M3351 1608 c-8 -22 -7 -1195 1 -1203 5 -5 140 -7 238 -4 13 1 15 29
15 215 l-1 214 26 1 c39 1 92 1 131 0 34 -1 38 -5 73 -73 21 -40 50 -95 65
-123 15 -27 47 -88 71 -135 24 -47 45 -87 46 -88 5 -8 74 -19 74 -12 0 4 15 4
33 1 17 -4 49 -4 70 0 20 3 37 3 37 0 0 -4 18 -5 39 -3 l39 4 -22 41 c-11 23
-25 45 -29 48 -5 3 -8 9 -8 13 1 3 -4 16 -12 29 -7 12 -18 31 -24 42 -6 11
-29 54 -50 95 -21 41 -40 77 -44 80 -3 3 -19 31 -36 63 l-31 58 39 25 c22 13
49 32 60 42 27 23 82 102 82 119 0 7 5 13 10 13 6 0 8 2 5 6 -3 3 0 24 6 47
13 44 13 147 1 207 -21 106 -112 211 -220 254 -82 33 -138 38 -439 40 -216 1
-239 -1 -245 -16z m535 -215 c45 -15 103 -71 106 -101 10 -120 1 -158 -48
-201 -39 -35 -82 -49 -147 -47 -26 1 -47 -2 -47 -7 0 -4 -5 -5 -11 -2 -15 10
-89 12 -89 3 0 -4 -10 -4 -22 1 -22 8 -23 11 -23 190 l0 182 119 -2 c74 -1
135 -7 162 -16z"/>
<path d="M5462 1620 c-9 -6 -8 -1207 0 -1215 8 -8 108 -12 108 -4 0 3 20 3 45
-1 25 -4 45 -4 45 -1 0 4 12 7 27 6 l28 0 0 603 c0 332 -2 607 -5 610 -6 8
-239 10 -248 2z"/>
<path d="M6932 1620 c-11 -8 -15 -32 -12 -80 1 -25 2 -54 1 -65 -2 -46 -2 -57
2 -61 2 -2 139 -4 305 -4 232 -1 301 -4 295 -13 -4 -7 -24 -35 -45 -64 -21
-29 -38 -58 -38 -64 0 -7 -3 -10 -6 -6 -3 3 -33 -34 -65 -81 -33 -48 -78 -112
-100 -142 -48 -66 -140 -197 -154 -218 -5 -9 -16 -23 -22 -31 -7 -9 -48 -65
-92 -126 l-79 -110 2 -75 1 -75 30 -5 c17 -3 56 -3 88 0 31 3 57 3 57 -1 0 -4
16 -3 35 1 19 4 35 4 35 0 0 -4 18 -4 40 0 22 4 40 5 40 1 0 -3 37 -5 82 -3
46 1 89 3 96 2 6 0 23 0 37 0 14 0 32 0 40 0 8 0 26 0 40 0 14 0 33 0 43 0 9
0 28 0 42 1 14 1 34 1 45 1 47 -1 92 -2 112 -2 12 0 26 0 30 -1 37 -6 40 -1
40 106 1 91 -1 105 -15 106 -10 0 -146 1 -304 1 -210 0 -286 4 -281 12 11 19
146 211 152 216 3 3 11 13 16 22 6 9 50 72 98 140 116 162 117 163 155 213 17
24 32 48 32 53 0 6 7 12 15 16 8 3 15 12 15 19 0 8 7 20 15 27 8 7 34 40 57
74 41 58 43 65 44 139 l1 77 -46 1 c-280 3 -874 3 -879 -1z"/>
<path d="M9069 1625 c-1 0 -2 -274 -3 -609 -1 -424 2 -610 9 -612 19 -8 125
-9 125 -3 0 4 16 3 35 -1 19 -4 37 -4 40 0 3 4 20 4 39 0 19 -4 40 -4 47 1 7
4 17 5 21 2 12 -7 117 -8 124 -1 3 3 20 2 38 -2 19 -4 40 -4 46 0 7 4 24 4 39
0 14 -4 35 -4 46 0 11 4 23 6 27 3 8 -4 72 -6 151 -4 l37 1 0 105 c0 93 -2
105 -17 106 -10 0 -137 1 -283 2 l-265 2 -1 145 -1 145 261 0 261 0 0 106 1
106 -90 -1 c-50 -1 -99 2 -108 6 -10 5 -18 5 -18 1 0 -4 -69 -8 -152 -7 l-153
1 0 144 0 144 281 3 282 2 0 105 1 105 -32 0 c-22 1 -755 5 -788 5z"/>
</g>
</svg>
