<svg width="30" height="31" viewBox="0 0 30 31" fill="none" xmlns="http://www.w3.org/2000/svg">
<path d="M22.9713 6.00882C22.0254 6.00882 21.2251 6.81192 21.2251 7.76103C21.2251 8.71015 22.0254 9.51324 22.9713 9.51324C23.9172 9.51324 24.7175 8.71015 24.7175 7.76103C24.7175 6.81192 23.9172 6.00882 22.9713 6.00882Z" fill="white"/>
<path d="M15.3315 8.1991C11.3297 8.1991 8.12831 11.4845 8.12831 15.427C8.12831 19.4425 11.4025 22.6548 15.3315 22.6548C19.3333 22.6548 22.5348 19.3695 22.5348 15.427C22.5348 11.4845 19.3333 8.1991 15.3315 8.1991ZM15.3315 20.0995C12.7849 20.0995 10.6749 17.9823 10.6749 15.427C10.6749 12.8717 12.7849 10.7544 15.3315 10.7544C17.8781 10.7544 19.9882 12.8717 19.9882 15.427C19.9882 17.9823 17.8781 20.0995 15.3315 20.0995Z" fill="white"/>
<path d="M21.0796 30.1748H9.36523C4.49032 30.1748 0.561279 26.2323 0.561279 21.3407V9.58627C0.561279 4.69468 4.49032 0.752197 9.36523 0.752197H21.0796C25.9545 0.752197 29.8835 4.69468 29.8835 9.58627V21.3407C29.8835 26.2323 25.8817 30.1748 21.0796 30.1748ZM9.36523 3.52653C6.01827 3.52653 3.32616 6.22786 3.32616 9.58627V21.3407C3.32616 24.6991 6.01827 27.4004 9.36523 27.4004H21.0796C24.4265 27.4004 27.1186 24.6991 27.1186 21.3407V9.58627C27.1186 6.22786 24.4265 3.52653 21.0796 3.52653H9.36523V3.52653Z" fill="white"/>
</svg>
