<svg width="88" height="169" viewBox="0 0 88 169" fill="none" xmlns="http://www.w3.org/2000/svg">
<path d="M1.32741 164V148.727H7.35298C8.50639 148.727 9.49077 148.934 10.3061 149.346C11.1264 149.754 11.7504 150.333 12.1779 151.084C12.6104 151.83 12.8267 152.707 12.8267 153.716C12.8267 154.73 12.608 155.603 12.1705 156.334C11.733 157.06 11.0991 157.616 10.2688 158.004C9.44354 158.392 8.44425 158.586 7.27095 158.586H3.23651V155.991H6.74893C7.36541 155.991 7.87749 155.906 8.28516 155.737C8.69283 155.568 8.99609 155.315 9.19496 154.977C9.39879 154.638 9.50071 154.218 9.50071 153.716C9.50071 153.209 9.39879 152.782 9.19496 152.434C8.99609 152.086 8.69034 151.822 8.2777 151.643C7.87003 151.459 7.35547 151.367 6.73402 151.367H4.55646V164H1.32741ZM9.57528 157.05L13.3711 164H9.80646L6.09268 157.05H9.57528ZM30.9377 148.727V164H27.7087V148.727H30.9377ZM46.0303 164V162.083L53.6518 151.39H46.0154V148.727H57.7086V150.644L50.0797 161.338H57.7235V164H46.0303ZM72.8012 164V148.727H83.0924V151.39H76.0303V155.029H82.563V157.691H76.0303V161.338H83.1223V164H72.8012Z" fill="white"/>
<path d="M45.6189 84.2105H82.461V138.947L45.6189 84.2105Z" fill="white"/>
<path d="M27.9258 61.7402V26.3647H56.1184L64.8265 15.385L42.0722 0H0V140L35.7663 95.5471L27.9258 83.7664H45.2084L87.3473 30.6365L75.0359 22.2932L27.9258 61.7402Z" fill="white"/>
<path d="M64.8265 15.3849L27.9258 61.7401L75.0359 22.2931L64.8265 15.3849Z" fill="white"/>
</svg>
