<svg width="27" height="31" viewBox="0 0 27 31" fill="none" xmlns="http://www.w3.org/2000/svg">
<path fill-rule="evenodd" clip-rule="evenodd" d="M19.724 10.3894C21.7613 11.8496 24.3079 12.7257 27 12.7257V8.63717C25.472 8.34513 24.1624 7.54203 23.1437 6.4469C21.3975 5.35177 20.1606 3.59956 19.7968 1.4823H16.0133V22.3628C16.0133 24.7721 14.0487 26.7434 11.5749 26.7434C10.1197 26.7434 8.88279 26.0863 8.08244 24.9911C6.62724 24.2611 5.68136 22.8009 5.68136 21.0487C5.68136 18.6394 7.64588 16.5951 10.1197 16.5951C10.5563 16.5951 11.0656 16.6681 11.4294 16.8142V12.6527C6.19068 12.7257 1.97061 17.0332 1.97061 22.2898C1.97061 24.9181 2.98924 27.3274 4.73548 29.0796C6.26343 30.1018 8.08244 30.6858 10.1197 30.6858C15.4312 30.6858 19.724 26.3783 19.724 21.0487V10.3894Z" fill="white"/>
<path fill-rule="evenodd" clip-rule="evenodd" d="M27 8.63717V7.54203C25.6176 7.54203 24.3079 7.17699 23.1437 6.4469C24.1624 7.54203 25.5448 8.34513 27 8.63717ZM19.8695 1.4823C19.8695 1.26327 19.7968 1.11726 19.7968 0.898229V0.24115H14.5581V21.1217C14.5581 23.531 12.5935 25.5022 10.1197 25.5022C9.39211 25.5022 8.73727 25.3562 8.1552 25.0642C8.95555 26.1593 10.2652 26.8164 11.6477 26.8164C14.0487 26.8164 16.0133 24.8451 16.086 22.4358V1.4823H19.8695ZM11.4294 12.7257V11.5575C10.9928 11.4845 10.5563 11.4845 10.1197 11.4845C4.80824 11.4845 0.515411 15.792 0.515411 21.1217C0.515411 24.4801 2.18888 27.4004 4.80824 29.1527C3.13476 27.4004 2.04336 24.9911 2.04336 22.3628C1.9706 17.1062 6.19068 12.7987 11.4294 12.7257Z" fill="white"/>
</svg>
