<svg width="33" height="27" viewBox="0 0 33 27" fill="none" xmlns="http://www.w3.org/2000/svg">
<path d="M32.3305 3.5708C31.3118 4.00885 30.2204 4.30089 29.129 4.51991C29.6383 4.44691 30.3659 3.49779 30.7297 3.13275C31.1663 2.54868 31.6029 1.8916 31.8211 1.16151C31.8211 1.0885 31.8939 1.01549 31.8211 1.01549C31.7484 1.01549 31.6756 1.01549 31.6756 1.01549C30.4387 1.67257 29.2018 2.11062 27.8921 2.47567C27.7466 2.47567 27.6738 2.47567 27.6011 2.40266C27.4556 2.25664 27.3828 2.18363 27.2373 2.03761C26.6552 1.52655 26.0731 1.16151 25.4183 0.942481C24.5452 0.577437 23.5265 0.431419 22.5806 0.504428C21.6348 0.577437 20.7617 0.796463 19.8885 1.23452C19.0882 1.67257 18.2878 2.25664 17.7057 2.98673C17.1237 3.71682 16.6143 4.66593 16.3961 5.54204C16.1778 6.41814 16.1778 7.36726 16.3233 8.24337C16.3233 8.38938 16.3233 8.38938 16.1778 8.38938C10.9391 7.58629 6.64624 5.76107 3.15377 1.74558C3.00825 1.59956 2.93549 1.59956 2.78997 1.74558C1.26201 4.08186 1.98961 7.7323 3.88136 9.55753C4.1724 9.77655 4.39068 10.0686 4.68172 10.2876C4.60896 10.2876 3.29928 10.1416 2.13513 9.55753C1.98961 9.48452 1.91684 9.48452 1.91684 9.70354C1.91684 9.92257 1.91684 10.2146 1.9896 10.4336C2.28064 12.7699 3.88136 14.9602 6.13692 15.7633C6.42796 15.9093 6.719 15.9823 6.93728 16.0553C6.42796 16.2013 5.91864 16.2743 4.46344 16.1283C4.31792 16.1283 4.24516 16.2013 4.31792 16.3473C5.40932 19.3407 7.73763 20.2168 9.48387 20.7279C9.70215 20.8009 9.92043 20.8009 10.2115 20.8009C10.2115 20.8009 10.2115 20.8009 10.1387 20.8739C9.55663 21.75 7.51935 22.4071 6.57348 22.7721C4.82724 23.3562 3.00824 23.6482 1.18925 23.4292C0.898206 23.3562 0.825448 23.3562 0.752688 23.4292C0.679928 23.5022 0.752687 23.5752 0.825447 23.6482C1.18925 23.8673 1.55305 24.0863 1.91684 24.3053C3.081 24.8894 4.24516 25.4004 5.48208 25.7655C11.9577 27.5907 19.2337 26.2766 24.1086 21.385C27.8921 17.5885 29.2745 12.3319 29.2745 7.07522C29.2745 6.8562 29.4928 6.78319 29.6383 6.63717C30.657 5.90708 31.4573 5.03098 32.1849 4.00885C32.3305 3.78983 32.3305 3.5708 32.3305 3.49779C32.476 3.49779 32.476 3.49779 32.3305 3.5708Z" fill="white"/>
</svg>
